<svg width="59" height="33" viewBox="0 0 59 33" fill="none" xmlns="http://www.w3.org/2000/svg">
<path d="M4.1001 26.3498V1.6998L5.2501 1.7998V26.3498C5.2501 28.0831 5.5501 29.3331 6.1501 30.0998C6.7501 30.8331 7.7501 31.1998 9.1501 31.1998C9.2501 31.1998 9.3001 31.2998 9.3001 31.4998C9.3001 31.6998 9.2501 31.7998 9.1501 31.7998C8.48343 31.7998 7.8001 31.7831 7.1001 31.7498C6.4001 31.7165 5.61676 31.6998 4.7501 31.6998C3.91676 31.6998 3.11676 31.7165 2.3501 31.7498C1.58343 31.7831 0.850098 31.7998 0.150098 31.7998C0.083431 31.7998 0.0500977 31.6998 0.0500977 31.4998C0.0500977 31.2998 0.083431 31.1998 0.150098 31.1998C1.61676 31.1998 2.63343 30.8331 3.2001 30.0998C3.8001 29.3331 4.1001 28.0831 4.1001 26.3498ZM29.3001 32.3998C29.3001 32.4665 29.2168 32.4998 29.0501 32.4998C28.8834 32.5331 28.7668 32.5331 28.7001 32.4998L5.7001 4.6498C4.56676 3.28314 3.5501 2.36647 2.6501 1.8998C1.78343 1.3998 0.950098 1.1498 0.150098 1.1498C0.0500978 1.1498 9.77814e-05 1.0498 9.77814e-05 0.849804C9.77814e-05 0.649804 0.0500978 0.549805 0.150098 0.549805C0.750098 0.549805 1.3501 0.566471 1.9501 0.599804C2.58343 0.633137 3.1501 0.649803 3.6501 0.649803C4.2501 0.649803 4.81676 0.633137 5.3501 0.599804C5.88343 0.566471 6.28343 0.549805 6.5501 0.549805C6.98343 0.549805 7.28343 0.749804 7.4501 1.1498C7.61676 1.51647 8.1001 2.18314 8.9001 3.1498L28.9001 27.6998L29.3001 32.3998ZM29.3001 6.0498V32.3998L28.1501 30.8498V6.0498C28.1501 4.31647 27.8501 3.06647 27.2501 2.2998C26.6834 1.53314 25.7168 1.1498 24.3501 1.1498C24.2834 1.1498 24.2501 1.0498 24.2501 0.849804C24.2501 0.649804 24.2834 0.549805 24.3501 0.549805C25.0168 0.549805 25.7001 0.583138 26.4001 0.649803C27.1334 0.683136 27.9168 0.699803 28.7501 0.699803C29.5501 0.699803 30.3334 0.683136 31.1001 0.649803C31.9001 0.583138 32.6334 0.549805 33.3001 0.549805C33.4001 0.549805 33.4501 0.649804 33.4501 0.849804C33.4501 1.0498 33.4001 1.1498 33.3001 1.1498C31.8668 1.1498 30.8334 1.53314 30.2001 2.2998C29.6001 3.06647 29.3001 4.31647 29.3001 6.0498ZM47.6782 -0.000197172C49.2116 -0.000197172 50.7949 0.149803 52.4282 0.449803C54.0949 0.749803 55.4282 1.18314 56.4282 1.7498C56.7282 1.91647 56.9116 2.06647 56.9782 2.1998C57.0782 2.33314 57.1449 2.58314 57.1782 2.9498L57.7282 8.5498C57.7282 8.61647 57.6449 8.68314 57.4782 8.7498C57.3116 8.78314 57.2116 8.73314 57.1782 8.5998C56.4116 5.8998 55.0116 3.98314 52.9782 2.8498C50.9449 1.68314 48.5282 1.0998 45.7282 1.0998C43.1616 1.0998 40.9282 1.66647 39.0282 2.7998C37.1616 3.8998 35.7116 5.46647 34.6782 7.4998C33.6449 9.4998 33.1282 11.8498 33.1282 14.5498C33.1282 16.9165 33.4949 19.1498 34.2282 21.2498C34.9616 23.3165 35.9782 25.1331 37.2782 26.6998C38.6116 28.2665 40.1282 29.4998 41.8282 30.3998C43.5616 31.2665 45.3949 31.6998 47.3282 31.6998C49.6616 31.6998 51.7116 31.0665 53.4782 29.7998C55.2782 28.4998 56.6616 26.4498 57.6282 23.6498C57.6616 23.5165 57.7616 23.4831 57.9282 23.5498C58.1282 23.5831 58.2282 23.6331 58.2282 23.6998L57.5282 29.3498C57.4616 29.7498 57.3782 30.0165 57.2782 30.1498C57.2116 30.2498 57.0282 30.3665 56.7282 30.4998C55.1282 31.1665 53.5449 31.6498 51.9782 31.9498C50.4116 32.2498 48.8282 32.3998 47.2282 32.3998C44.0616 32.3998 41.3449 31.9165 39.0782 30.9498C36.8116 29.9498 34.9616 28.6498 33.5282 27.0498C32.0949 25.4165 31.0449 23.6331 30.3782 21.6998C29.7116 19.7331 29.3782 17.7998 29.3782 15.8998C29.3782 13.4998 29.8782 11.3331 30.8782 9.3998C31.8782 7.46647 33.2449 5.7998 34.9782 4.3998C36.7116 2.9998 38.6616 1.91647 40.8282 1.1498C43.0282 0.383136 45.3116 -0.000197172 47.6782 -0.000197172Z" fill="#443F3A"/>
</svg>
