<svg xmlns="http://www.w3.org/2000/svg" style="position: absolute; width: 0; height: 0; clip: rect(0 0 0 0);">
    <symbol id="arrow-long" viewBox="0 0 251 15">
        <path d="M250.707 8.07112C251.098 7.6806 251.098 7.04743 250.707 6.65691L244.343 0.292946C243.953 -0.0975785 243.319 -0.0975785 242.929 0.292946C242.538 0.68347 242.538 1.31664 242.929 1.70716L248.586 7.36401L242.929 13.0209C242.538 13.4114 242.538 14.0446 242.929 14.4351C243.319 14.8256 243.953 14.8256 244.343 14.4351L250.707 8.07112ZM0 7.36401V8.36401H250V7.36401V6.36401H0V7.36401Z"/>
    </symbol>
    <symbol id="slider-arrow-next" viewBox="0 0 24 24">
        <path d="M5 12H19" stroke-width="2" stroke-linecap="round" stroke-linejoin="round"/>
        <path d="M12 5L19 12L12 19" stroke-width="2" stroke-linecap="round" stroke-linejoin="round"/>
    </symbol>
    <symbol id="slider-arrow-prev" viewBox="0 0 24 24">
        <path d="M19 12H5" stroke-width="2" stroke-linecap="round" stroke-linejoin="round"/>
        <path d="M12 5L5 12L12 19" stroke-width="2" stroke-linecap="round" stroke-linejoin="round"/>
    </symbol>
    <symbol id="icon-cart" viewBox="0 0 29 28">
        <path d="M12 26C12.5523 26 13 25.5523 13 25C13 24.4477 12.5523 24 12 24C11.4477 24 11 24.4477 11 25C11 25.5523 11.4477 26 12 26Z" stroke="#443F3A" stroke-width="3" stroke-linecap="round" stroke-linejoin="round"/>
        <path d="M23 26C23.5523 26 24 25.5523 24 25C24 24.4477 23.5523 24 23 24C22.4477 24 22 24.4477 22 25C22 25.5523 22.4477 26 23 26Z" stroke="#443F3A" stroke-width="3" stroke-linecap="round" stroke-linejoin="round"/>
        <path d="M1 1H5.90909L9.19818 17.9603C9.31041 18.5434 9.6178 19.0672 10.0665 19.4401C10.5153 19.8129 11.0768 20.0109 11.6527 19.9995H23.5818C24.1578 20.0109 24.7193 19.8129 25.168 19.4401C25.6168 19.0672 25.9241 18.5434 26.0364 17.9603L28 7.33318H7.13636" stroke="#443F3A" stroke-width="2" stroke-linecap="round" stroke-linejoin="round"/>
    </symbol>
    <symbol id="icon-compare" viewBox="0 0 20 25">
        <g clip-path="url(#clip0_8261_140)">
            <path d="M18.5713 23.6111V9.72223" stroke-width="2" stroke-linecap="round" stroke-linejoin="round"/>
            <path d="M10 23.6111V1.38889" stroke-width="2" stroke-linecap="round" stroke-linejoin="round"/>
            <path d="M1.42871 23.6111V15.2778" stroke-width="2" stroke-linecap="round" stroke-linejoin="round"/>
        </g>
        <defs>
            <clipPath id="clip0_8261_140">
                <rect width="20" height="25" fill="white"/>
            </clipPath>
        </defs>
    </symbol>
    <symbol id="icon-favorite" viewBox="0 0 28 25">
        <path d="M24.9952 3.03337C24.3599 2.38873 23.6056 1.87736 22.7754 1.52847C21.9451 1.17958 21.0553 1 20.1566 1C19.258 1 18.3681 1.17958 17.5379 1.52847C16.7077 1.87736 15.9534 2.38873 15.3181 3.03337L13.9997 4.37059L12.6812 3.03337C11.398 1.73186 9.65749 1.00067 7.84269 1.00067C6.0279 1.00067 4.28743 1.73186 3.00418 3.03337C1.72092 4.33488 1 6.1001 1 7.94072C1 9.78133 1.72092 11.5466 3.00418 12.8481L4.32264 14.1853L13.9997 24L23.6767 14.1853L24.9952 12.8481C25.6307 12.2037 26.1349 11.4387 26.4789 10.5967C26.8229 9.75467 27 8.85216 27 7.94072C27 7.02928 26.8229 6.12677 26.4789 5.28475C26.1349 4.44273 25.6307 3.6777 24.9952 3.03337Z" stroke-width="2" stroke-linecap="round" stroke-linejoin="round"/>
    </symbol>
    <symbol id="icon-login" viewBox="0 0 23 26">
        <path d="M22 25V22.3333C22 20.9188 21.4469 19.5623 20.4623 18.5621C19.4777 17.5619 18.1424 17 16.75 17H6.25C4.85761 17 3.52226 17.5619 2.53769 18.5621C1.55312 19.5623 1 20.9188 1 22.3333V25" stroke="#443F3A" stroke-width="2" stroke-linecap="round" stroke-linejoin="round"/>
        <path d="M11.5 12C14.5376 12 17 9.53757 17 6.5C17 3.46243 14.5376 1 11.5 1C8.46243 1 6 3.46243 6 6.5C6 9.53757 8.46243 12 11.5 12Z" stroke="#443F3A" stroke-width="2" stroke-linecap="round" stroke-linejoin="round"/>
    </symbol>
    <symbol id="icon-search" viewBox="0 0 24 24">
        <path d="M10.7308 20.4615C16.1049 20.4615 20.4615 16.1049 20.4615 10.7308C20.4615 5.35661 16.1049 1 10.7308 1C5.35661 1 1 5.35661 1 10.7308C1 16.1049 5.35661 20.4615 10.7308 20.4615Z" stroke="#878378" stroke-width="2" stroke-linecap="round" stroke-linejoin="round"/>
        <path d="M22.2307 22.2308L17.8076 17.8077" stroke="#878378" stroke-width="2" stroke-linecap="round" stroke-linejoin="round"/>
    </symbol>
    <symbol id="icon-burger" viewBox="0 0 42 26">
        <path d="M41 17L1 17" stroke="#443F3A" stroke-width="2" stroke-linecap="round" stroke-linejoin="round"/>
        <path d="M41 9L1 9" stroke="#443F3A" stroke-width="2" stroke-linecap="round" stroke-linejoin="round"/>
        <path d="M41 1H1" stroke="#443F3A" stroke-width="2" stroke-linecap="round" stroke-linejoin="round"/>
        <path d="M41 25L1 25" stroke="#443F3A" stroke-width="2" stroke-linecap="round" stroke-linejoin="round"/>
    </symbol>
    <symbol id="icon-cross" viewBox="0 0 32 33">
        <path d="M30.8169 30.7335L0.916016 1.07742" stroke="#443F3A" stroke-width="2" stroke-linecap="round" stroke-linejoin="round"/>
        <path d="M30.9155 1.42137L1.01465 31.0774" stroke="#443F3A" stroke-width="2" stroke-linecap="round" stroke-linejoin="round"/>
    </symbol>
    <symbol id="icon-filters" viewBox="0 0 23 16">
        <line x1="1" y1="3" x2="19" y2="3" stroke-width="2" stroke-linecap="round"/>
        <line x1="4" y1="13" x2="22" y2="13" stroke-width="2" stroke-linecap="round"/>
        <circle cx="3" cy="13" r="3"/>
        <circle cx="20" cy="3" r="3"/>
    </symbol>
    <symbol id="icon-sort" viewBox="0 0 22 18">
        <path d="M4.97656 17L4.97656 2" stroke-width="2" stroke-linecap="round" stroke-linejoin="round"/>
        <path d="M1 6L5 1L9 6" stroke-width="2" stroke-linecap="round" stroke-linejoin="round"/>
        <path d="M16.9766 1L16.9766 16" stroke-width="2" stroke-linecap="round" stroke-linejoin="round"/>
        <path d="M13 12L17 17L21 12" stroke-width="2" stroke-linecap="round" stroke-linejoin="round"/>
    </symbol>
    <symbol id="icon-pagination-prev" viewBox="0 0 8 13">
        <path d="M7 1L1 6.5L7 12" stroke-width="2" stroke-linecap="round" stroke-linejoin="round"/>
    </symbol>
    <symbol id="icon-pagination-next" viewBox="0 0 8 13">
        <path d="M1 1L7 6.5L1 12" stroke-width="2" stroke-linecap="round" stroke-linejoin="round"/>
    </symbol>
    <symbol id="icon-plus" viewBox="0 0 16 16">
        <line x1="1" y1="8" x2="15" y2="8" stroke-linecap="round"/>
        <line x1="8" y1="1" x2="8" y2="15" stroke-linecap="round"/>
    </symbol>
    <symbol id="icon-minus" viewBox="0 0 16 2">
        <line x1="1" y1="1" x2="15" y2="1" stroke-linecap="round"/>
    </symbol>
    <symbol id="icon-card" viewBox="0 0 42 29">
        <rect x="1" y="1" width="40" height="27" rx="3" fill="#E3DFD9" stroke="#858176" stroke-width="2"/>
        <line x1="2" y1="9" x2="40" y2="9" stroke="#858176" stroke-width="2"/>
    </symbol>
    <symbol id="icon-delivery" viewBox="0 0 48 32">
        <circle cx="10" cy="26" r="5" fill="#E3DFD9" stroke="#858176" stroke-width="2"/>
        <circle cx="38" cy="26" r="5" fill="#E3DFD9" stroke="#858176" stroke-width="2"/>
        <path d="M46.5 16.3333V25C46.5 25.5523 46.0523 26 45.5 26H31H2C1.44772 26 1 25.5523 1 25V2C1 1.44772 1.44772 1 2 1H30C30.5523 1 31 1.44772 31 2V6H38.5C38.8148 6 39.1111 6.14819 39.3 6.4L46.3 15.7333C46.4298 15.9064 46.5 16.117 46.5 16.3333Z" fill="#E3DFD9"/>
        <path d="M31 6H38.5C38.8148 6 39.1111 6.14819 39.3 6.4L46.3 15.7333C46.4298 15.9064 46.5 16.117 46.5 16.3333V25C46.5 25.5523 46.0523 26 45.5 26H31M31 6V2C31 1.44772 30.5523 1 30 1H2C1.44772 1 1 1.44772 1 2V25C1 25.5523 1.44772 26 2 26H31M31 6V15.5M31 26V15.5M31 9H37.5C38.0523 9 38.5 9.44772 38.5 10V14.5C38.5 15.0523 38.0523 15.5 37.5 15.5H31" stroke="#858176" stroke-width="2"/>
    </symbol>
    <symbol id="icon-exchange" viewBox="0 0 42 40">
        <path d="M20.9954 1.0229L41 5.38077V29.7919C41 30.2102 40.7396 30.5844 40.3473 30.7296L20.7802 37.976L1.74184 32.8885C1.30433 32.7716 1 32.3753 1 31.9224V5.38077L20.5652 1.02389C20.7069 0.99235 20.8537 0.992011 20.9954 1.0229Z" fill="#E3DFD9"/>
        <path d="M41 5.38077L20.8827 10.2015C20.8304 10.214 20.7802 10.1744 20.7802 10.1207M41 5.38077L20.9954 1.0229C20.8537 0.992011 20.7069 0.99235 20.5652 1.02389L1 5.38077M41 5.38077V29.7919C41 30.2102 40.7396 30.5844 40.3473 30.7296L20.7802 37.976M1 5.38077V31.9224C1 32.3753 1.30433 32.7716 1.74184 32.8885L20.7802 37.976M1 5.38077L20.7802 10.1207M20.7802 37.976V10.1207" stroke="#858176" stroke-width="2"/>
        <path d="M30.35 26.976C30.35 27.335 30.641 27.626 31 27.626C31.359 27.626 31.65 27.335 31.65 26.976L31 26.976L30.35 26.976ZM31.4596 16.5164C31.2058 16.2626 30.7942 16.2626 30.5404 16.5164L26.4038 20.653C26.15 20.9068 26.15 21.3184 26.4038 21.5722C26.6576 21.826 27.0692 21.826 27.323 21.5722L31 17.8953L34.677 21.5722C34.9308 21.826 35.3424 21.826 35.5962 21.5722C35.85 21.3184 35.85 20.9068 35.5962 20.653L31.4596 16.5164ZM31 26.976L31.65 26.976L31.65 16.976L31 16.976L30.35 16.976L30.35 26.976L31 26.976Z" fill="#858176"/>
        <path d="M9.35 15.976C9.35 15.617 9.64101 15.326 10 15.326C10.359 15.326 10.65 15.617 10.65 15.976L10 15.976L9.35 15.976ZM10.4596 26.4356C10.2058 26.6895 9.79422 26.6895 9.54038 26.4356L5.40381 22.2991C5.14997 22.0452 5.14997 21.6337 5.40381 21.3798C5.65765 21.126 6.0692 21.126 6.32305 21.3798L10 25.0568L13.677 21.3798C13.9308 21.126 14.3424 21.126 14.5962 21.3798C14.85 21.6337 14.85 22.0452 14.5962 22.2991L10.4596 26.4356ZM10 15.976L10.65 15.976L10.65 25.976L10 25.976L9.35 25.976L9.35 15.976L10 15.976Z" fill="#858176"/>
    </symbol>
    <symbol id="icon-eye" viewBox="0 0 24 24">
        <path d="M1 12C1 12 5 4 12 4C19 4 23 12 23 12C23 12 19 20 12 20C5 20 1 12 1 12Z" stroke="#858176" stroke-width="2" stroke-linecap="round" stroke-linejoin="round"/>
        <path d="M12 15C13.6569 15 15 13.6569 15 12C15 10.3431 13.6569 9 12 9C10.3431 9 9 10.3431 9 12C9 13.6569 10.3431 15 12 15Z" stroke="#858176" stroke-width="2" stroke-linecap="round" stroke-linejoin="round"/>
    </symbol>
    <symbol id="icon-eye-off" viewBox="0 0 24 24">
        <g clip-path="url(#clip0_8571_121)">
            <path d="M17.94 17.94C16.2306 19.243 14.1491 19.9649 12 20C5 20 1 12 1 12C2.24389 9.68192 3.96914 7.65663 6.06 6.06003M9.9 4.24002C10.5883 4.0789 11.2931 3.99836 12 4.00003C19 4.00003 23 12 23 12C22.393 13.1356 21.6691 14.2048 20.84 15.19M14.12 14.12C13.8454 14.4148 13.5141 14.6512 13.1462 14.8151C12.7782 14.9791 12.3809 15.0673 11.9781 15.0744C11.5753 15.0815 11.1752 15.0074 10.8016 14.8565C10.4281 14.7056 10.0887 14.4811 9.80385 14.1962C9.51897 13.9113 9.29439 13.572 9.14351 13.1984C8.99262 12.8249 8.91853 12.4247 8.92563 12.0219C8.93274 11.6191 9.02091 11.2219 9.18488 10.8539C9.34884 10.4859 9.58525 10.1547 9.88 9.88003" stroke="#858176" stroke-width="2" stroke-linecap="round" stroke-linejoin="round"/>
            <path d="M1 1L23 23" stroke="#858176" stroke-width="2" stroke-linecap="round" stroke-linejoin="round"/>
        </g>
        <defs>
            <clipPath id="clip0_8571_121">
                <rect width="24" height="24" fill="white"/>
            </clipPath>
        </defs>
    </symbol>
    <symbol id="calendar" viewbox="0 0 18 18">
        <path d="m15.9 1.4h-.9v-1.4h-1.4v1.4h-9.2v-1.4h-1.4v1.4h-.9c-1.2 0-2.1 1-2.1 2.1v12.4c0 1.2.9 2.1 2.1 2.1h13.8c1.2 0 2.1-.9 2.1-2.1v-12.4c0-1.1-.9-2.1-2.1-2.1m.7 14.5c0 .4-.3.7-.7.7h-13.8c-.4 0-.7-.3-.7-.7v-9.3h15.2v9.3m0-10.7h-15.2v-1.7c0-.4.3-.7.7-.7h.9v1.4h1.4v-1.4h9.3v1.4h1.3v-1.4h.8c.4 0 .7.3.7.7v1.7zm-13.9 2.9h1.4v1.4h-1.4v-1.4m2.8 0h1.4v1.4h-1.4v-1.4m2.8 0h1.4v1.4h-1.4v-1.4m2.8 0h1.4v1.4h-1.4v-1.4m2.8 0h1.4v1.4h-1.4v-1.4m-11.2 2.8h1.4v1.4h-1.4v-1.4m2.8 0h1.4v1.4h-1.4v-1.4m2.8 0h1.4v1.4h-1.4v-1.4m2.8 0h1.4v1.4h-1.4v-1.4m-8.4 2.8h1.4v1.4h-1.4v-1.4m2.8 0h1.4v1.4h-1.4v-1.4m2.8 0h1.4v1.4h-1.4v-1.4m2.8 0h1.4v1.4h-1.4v-1.4m2.8-2.8h1.4v1.4h-1.4v-1.4"></path>
    </symbol>
    <symbol id="icon-logout" viewBox="0 0 24 24">
        <path d="M9 21H5C4.46957 21 3.96086 20.7893 3.58579 20.4142C3.21071 20.0391 3 19.5304 3 19V5C3 4.46957 3.21071 3.96086 3.58579 3.58579C3.96086 3.21071 4.46957 3 5 3H9" stroke-width="2" stroke-linecap="round" stroke-linejoin="round"/>
        <path d="M16 17L21 12L16 7" stroke-width="2" stroke-linecap="round" stroke-linejoin="round"/>
        <path d="M21 12H9" stroke-width="2" stroke-linecap="round" stroke-linejoin="round"/>
    </symbol>
    <symbol id="icon-phone" viewBox="0 0 40 40">
        <circle cx="20" cy="20" r="20" fill="#B3AB9B"/>
        <path d="M29.3554 26.1011L29.0314 29.1069C29.0025 29.3861 28.9154 29.6561 28.7759 29.8997C28.6363 30.1433 28.4473 30.3551 28.2209 30.5216C27.9946 30.688 27.7358 30.8054 27.4613 30.8663C27.1868 30.9271 26.9026 30.9301 26.6268 30.8749C23.5737 30.207 20.7197 28.8336 18.2944 26.8652C16.0345 25.0654 14.1991 22.7913 12.9186 20.2043C11.5036 17.4076 10.7685 14.3178 10.7727 11.1852C10.7775 10.9055 10.8406 10.6298 10.958 10.3757C11.0754 10.1216 11.2445 9.89478 11.4546 9.70956C11.6646 9.52435 11.9111 9.38484 12.1782 9.29991C12.4453 9.21499 12.7272 9.18651 13.006 9.21629L16.0178 9.54088C16.5055 9.5886 16.9593 9.8117 17.2946 10.1686C17.6298 10.5255 17.8236 10.9918 17.8399 11.4806C17.8634 12.4563 17.9974 13.4262 18.2393 14.3719C18.3357 14.745 18.3229 15.1379 18.2025 15.504C18.082 15.8701 17.8589 16.194 17.5597 16.4373L16.1475 17.5723C17.3063 20.2348 19.1636 22.536 21.5233 24.2332L22.9354 23.0982C23.2374 22.8582 23.602 22.7097 23.9861 22.6702C24.3701 22.6308 24.7575 22.7021 25.1023 22.8756C25.9766 23.313 26.8976 23.6502 27.8478 23.881C28.3281 24.0022 28.747 24.2954 29.025 24.7047C29.303 25.114 29.4205 25.611 29.3554 26.1011Z" fill="#FBF7F3"/>
    </symbol>
    <symbol id="icon-whats-up" viewBox="0 0 40 40">
        <path d="M20 40C31.0457 40 40 31.0457 40 20C40 8.9543 31.0457 0 20 0C8.9543 0 0 8.9543 0 20C0 31.0457 8.9543 40 20 40Z" fill="#25D366"/>
        <path fill-rule="evenodd" clip-rule="evenodd" d="M20.6592 31.1271H20.6543C18.6639 31.1264 16.7082 30.627 14.9711 29.6795L8.66667 31.3333L10.3538 25.1707C9.31311 23.3671 8.76548 21.3212 8.76637 19.2252C8.76898 12.6681 14.104 7.33333 20.6591 7.33333C23.8405 7.33471 26.8265 8.57322 29.0718 10.8212C31.3172 13.069 32.553 16.0569 32.5518 19.2346C32.5492 25.7902 27.2162 31.1244 20.6592 31.1271ZM15.2632 27.5266L15.6242 27.7408C17.1418 28.6414 18.8815 29.1179 20.6552 29.1186H20.6592C26.1074 29.1186 30.5416 24.6843 30.5438 19.2339C30.5448 16.5927 29.5176 14.1092 27.6514 12.2408C25.7852 10.3724 23.3033 9.34295 20.6631 9.34203C15.2108 9.34203 10.7765 13.7759 10.7743 19.2259C10.7735 21.0936 11.2961 22.9126 12.2856 24.4864L12.5206 24.8604L11.5221 28.508L15.2632 27.5266ZM26.2437 21.795C26.4509 21.8952 26.5909 21.9629 26.6506 22.0626C26.7249 22.1865 26.7249 22.7815 26.4774 23.4757C26.2297 24.1698 25.0425 24.8033 24.4716 24.8886C23.9596 24.9652 23.3118 24.9971 22.6 24.7709C22.1684 24.6339 21.6149 24.4511 20.9059 24.1449C18.1201 22.942 16.2375 20.242 15.8817 19.7317C15.8568 19.6959 15.8394 19.6709 15.8296 19.658L15.8272 19.6548C15.67 19.4449 14.6163 18.039 14.6163 16.584C14.6163 15.2152 15.2886 14.4978 15.5981 14.1675C15.6193 14.1449 15.6388 14.1241 15.6563 14.105C15.9287 13.8075 16.2506 13.7331 16.4487 13.7331C16.6468 13.7331 16.8451 13.735 17.0182 13.7437C17.0396 13.7447 17.0618 13.7446 17.0848 13.7445C17.258 13.7434 17.4738 13.7422 17.6868 14.2538C17.7688 14.4506 17.8886 14.7425 18.0151 15.0504C18.2708 15.6729 18.5533 16.3606 18.603 16.4602C18.6773 16.6089 18.7268 16.7824 18.6278 16.9808C18.6129 17.0105 18.5992 17.0386 18.586 17.0654C18.5116 17.2173 18.4569 17.329 18.3306 17.4765C18.281 17.5344 18.2297 17.5969 18.1783 17.6594C18.0761 17.7839 17.9739 17.9084 17.8849 17.9971C17.7361 18.1453 17.5813 18.306 17.7546 18.6035C17.9279 18.901 18.5243 19.8741 19.4077 20.6621C20.3573 21.5091 21.1826 21.8671 21.601 22.0485C21.6827 22.084 21.7488 22.1127 21.7974 22.137C22.0944 22.2858 22.2678 22.2609 22.4411 22.0626C22.6145 21.8643 23.184 21.1949 23.382 20.8974C23.5801 20.6001 23.7783 20.6496 24.0506 20.7487C24.3231 20.848 25.784 21.5668 26.0812 21.7155C26.1392 21.7445 26.1934 21.7708 26.2437 21.795Z" fill="#FDFDFD"/>
    </symbol>
</svg>
