<svg xmlns="http://www.w3.org/2000/svg" style="position: absolute; width: 0; height: 0; clip: rect(0 0 0 0);">
    <symbol id="arrow-long" viewBox="0 0 251 15">
        <path d="M250.707 8.07112C251.098 7.6806 251.098 7.04743 250.707 6.65691L244.343 0.292946C243.953 -0.0975785 243.319 -0.0975785 242.929 0.292946C242.538 0.68347 242.538 1.31664 242.929 1.70716L248.586 7.36401L242.929 13.0209C242.538 13.4114 242.538 14.0446 242.929 14.4351C243.319 14.8256 243.953 14.8256 244.343 14.4351L250.707 8.07112ZM0 7.36401V8.36401H250V7.36401V6.36401H0V7.36401Z"/>
    </symbol>
    <symbol id="slider-arrow-next" viewBox="0 0 24 24">
        <path d="M5 12H19" stroke-width="2" stroke-linecap="round" stroke-linejoin="round"/>
        <path d="M12 5L19 12L12 19" stroke-width="2" stroke-linecap="round" stroke-linejoin="round"/>
    </symbol>
    <symbol id="slider-arrow-prev" viewBox="0 0 24 24">
        <path d="M19 12H5" stroke-width="2" stroke-linecap="round" stroke-linejoin="round"/>
        <path d="M12 5L5 12L12 19" stroke-width="2" stroke-linecap="round" stroke-linejoin="round"/>
    </symbol>
    <symbol id="icon-cart" viewBox="0 0 29 28">
        <path d="M12 26C12.5523 26 13 25.5523 13 25C13 24.4477 12.5523 24 12 24C11.4477 24 11 24.4477 11 25C11 25.5523 11.4477 26 12 26Z" stroke="#443F3A" stroke-width="3" stroke-linecap="round" stroke-linejoin="round"/>
        <path d="M23 26C23.5523 26 24 25.5523 24 25C24 24.4477 23.5523 24 23 24C22.4477 24 22 24.4477 22 25C22 25.5523 22.4477 26 23 26Z" stroke="#443F3A" stroke-width="3" stroke-linecap="round" stroke-linejoin="round"/>
        <path d="M1 1H5.90909L9.19818 17.9603C9.31041 18.5434 9.6178 19.0672 10.0665 19.4401C10.5153 19.8129 11.0768 20.0109 11.6527 19.9995H23.5818C24.1578 20.0109 24.7193 19.8129 25.168 19.4401C25.6168 19.0672 25.9241 18.5434 26.0364 17.9603L28 7.33318H7.13636" stroke="#443F3A" stroke-width="2" stroke-linecap="round" stroke-linejoin="round"/>
    </symbol>
    <symbol id="icon-compare" viewBox="0 0 20 25">
        <g clip-path="url(#clip0_8261_140)">
            <path d="M18.5713 23.6111V9.72223" stroke-width="2" stroke-linecap="round" stroke-linejoin="round"/>
            <path d="M10 23.6111V1.38889" stroke-width="2" stroke-linecap="round" stroke-linejoin="round"/>
            <path d="M1.42871 23.6111V15.2778" stroke-width="2" stroke-linecap="round" stroke-linejoin="round"/>
        </g>
        <defs>
            <clipPath id="clip0_8261_140">
                <rect width="20" height="25" fill="white"/>
            </clipPath>
        </defs>
    </symbol>
    <symbol id="icon-favorite" viewBox="0 0 28 25">
        <path d="M24.9952 3.03337C24.3599 2.38873 23.6056 1.87736 22.7754 1.52847C21.9451 1.17958 21.0553 1 20.1566 1C19.258 1 18.3681 1.17958 17.5379 1.52847C16.7077 1.87736 15.9534 2.38873 15.3181 3.03337L13.9997 4.37059L12.6812 3.03337C11.398 1.73186 9.65749 1.00067 7.84269 1.00067C6.0279 1.00067 4.28743 1.73186 3.00418 3.03337C1.72092 4.33488 1 6.1001 1 7.94072C1 9.78133 1.72092 11.5466 3.00418 12.8481L4.32264 14.1853L13.9997 24L23.6767 14.1853L24.9952 12.8481C25.6307 12.2037 26.1349 11.4387 26.4789 10.5967C26.8229 9.75467 27 8.85216 27 7.94072C27 7.02928 26.8229 6.12677 26.4789 5.28475C26.1349 4.44273 25.6307 3.6777 24.9952 3.03337Z" stroke-width="2" stroke-linecap="round" stroke-linejoin="round"/>
    </symbol>
    <symbol id="icon-login" viewBox="0 0 23 26">
        <path d="M22 25V22.3333C22 20.9188 21.4469 19.5623 20.4623 18.5621C19.4777 17.5619 18.1424 17 16.75 17H6.25C4.85761 17 3.52226 17.5619 2.53769 18.5621C1.55312 19.5623 1 20.9188 1 22.3333V25" stroke="#443F3A" stroke-width="2" stroke-linecap="round" stroke-linejoin="round"/>
        <path d="M11.5 12C14.5376 12 17 9.53757 17 6.5C17 3.46243 14.5376 1 11.5 1C8.46243 1 6 3.46243 6 6.5C6 9.53757 8.46243 12 11.5 12Z" stroke="#443F3A" stroke-width="2" stroke-linecap="round" stroke-linejoin="round"/>
    </symbol>
    <symbol id="icon-search" viewBox="0 0 24 24">
        <path d="M10.7308 20.4615C16.1049 20.4615 20.4615 16.1049 20.4615 10.7308C20.4615 5.35661 16.1049 1 10.7308 1C5.35661 1 1 5.35661 1 10.7308C1 16.1049 5.35661 20.4615 10.7308 20.4615Z" stroke="#878378" stroke-width="2" stroke-linecap="round" stroke-linejoin="round"/>
        <path d="M22.2307 22.2308L17.8076 17.8077" stroke="#878378" stroke-width="2" stroke-linecap="round" stroke-linejoin="round"/>
    </symbol>
    <symbol id="icon-burger" viewBox="0 0 42 26">
        <path d="M41 17L1 17" stroke="#443F3A" stroke-width="2" stroke-linecap="round" stroke-linejoin="round"/>
        <path d="M41 9L1 9" stroke="#443F3A" stroke-width="2" stroke-linecap="round" stroke-linejoin="round"/>
        <path d="M41 1H1" stroke="#443F3A" stroke-width="2" stroke-linecap="round" stroke-linejoin="round"/>
        <path d="M41 25L1 25" stroke="#443F3A" stroke-width="2" stroke-linecap="round" stroke-linejoin="round"/>
    </symbol>
    <symbol id="icon-cross" viewBox="0 0 32 33">
        <path d="M30.8169 30.7335L0.916016 1.07742" stroke="#443F3A" stroke-width="2" stroke-linecap="round" stroke-linejoin="round"/>
        <path d="M30.9155 1.42137L1.01465 31.0774" stroke="#443F3A" stroke-width="2" stroke-linecap="round" stroke-linejoin="round"/>
    </symbol>
    <symbol id="icon-filters" viewBox="0 0 23 16">
        <line x1="1" y1="3" x2="19" y2="3" stroke-width="2" stroke-linecap="round"/>
        <line x1="4" y1="13" x2="22" y2="13" stroke-width="2" stroke-linecap="round"/>
        <circle cx="3" cy="13" r="3"/>
        <circle cx="20" cy="3" r="3"/>
    </symbol>
    <symbol id="icon-sort" viewBox="0 0 22 18">
        <path d="M4.97656 17L4.97656 2" stroke-width="2" stroke-linecap="round" stroke-linejoin="round"/>
        <path d="M1 6L5 1L9 6" stroke-width="2" stroke-linecap="round" stroke-linejoin="round"/>
        <path d="M16.9766 1L16.9766 16" stroke-width="2" stroke-linecap="round" stroke-linejoin="round"/>
        <path d="M13 12L17 17L21 12" stroke-width="2" stroke-linecap="round" stroke-linejoin="round"/>
    </symbol>
    <symbol id="icon-pagination-prev" viewBox="0 0 8 13">
        <path d="M7 1L1 6.5L7 12" stroke-width="2" stroke-linecap="round" stroke-linejoin="round"/>
    </symbol>
    <symbol id="icon-pagination-next" viewBox="0 0 8 13">
        <path d="M1 1L7 6.5L1 12" stroke-width="2" stroke-linecap="round" stroke-linejoin="round"/>
    </symbol>
    <symbol id="icon-plus" viewBox="0 0 16 16">
        <line x1="1" y1="8" x2="15" y2="8" stroke-linecap="round"/>
        <line x1="8" y1="1" x2="8" y2="15" stroke-linecap="round"/>
    </symbol>
    <symbol id="icon-minus" viewBox="0 0 16 2">
        <line x1="1" y1="1" x2="15" y2="1" stroke-linecap="round"/>
    </symbol>
    <symbol id="icon-card" viewBox="0 0 42 29">
        <rect x="1" y="1" width="40" height="27" rx="3" fill="#E3DFD9" stroke="#858176" stroke-width="2"/>
        <line x1="2" y1="9" x2="40" y2="9" stroke="#858176" stroke-width="2"/>
    </symbol>
    <symbol id="icon-delivery" viewBox="0 0 48 32">
        <circle cx="10" cy="26" r="5" fill="#E3DFD9" stroke="#858176" stroke-width="2"/>
        <circle cx="38" cy="26" r="5" fill="#E3DFD9" stroke="#858176" stroke-width="2"/>
        <path d="M46.5 16.3333V25C46.5 25.5523 46.0523 26 45.5 26H31H2C1.44772 26 1 25.5523 1 25V2C1 1.44772 1.44772 1 2 1H30C30.5523 1 31 1.44772 31 2V6H38.5C38.8148 6 39.1111 6.14819 39.3 6.4L46.3 15.7333C46.4298 15.9064 46.5 16.117 46.5 16.3333Z" fill="#E3DFD9"/>
        <path d="M31 6H38.5C38.8148 6 39.1111 6.14819 39.3 6.4L46.3 15.7333C46.4298 15.9064 46.5 16.117 46.5 16.3333V25C46.5 25.5523 46.0523 26 45.5 26H31M31 6V2C31 1.44772 30.5523 1 30 1H2C1.44772 1 1 1.44772 1 2V25C1 25.5523 1.44772 26 2 26H31M31 6V15.5M31 26V15.5M31 9H37.5C38.0523 9 38.5 9.44772 38.5 10V14.5C38.5 15.0523 38.0523 15.5 37.5 15.5H31" stroke="#858176" stroke-width="2"/>
    </symbol>
    <symbol id="icon-exchange" viewBox="0 0 42 40">
        <path d="M20.9954 1.0229L41 5.38077V29.7919C41 30.2102 40.7396 30.5844 40.3473 30.7296L20.7802 37.976L1.74184 32.8885C1.30433 32.7716 1 32.3753 1 31.9224V5.38077L20.5652 1.02389C20.7069 0.99235 20.8537 0.992011 20.9954 1.0229Z" fill="#E3DFD9"/>
        <path d="M41 5.38077L20.8827 10.2015C20.8304 10.214 20.7802 10.1744 20.7802 10.1207M41 5.38077L20.9954 1.0229C20.8537 0.992011 20.7069 0.99235 20.5652 1.02389L1 5.38077M41 5.38077V29.7919C41 30.2102 40.7396 30.5844 40.3473 30.7296L20.7802 37.976M1 5.38077V31.9224C1 32.3753 1.30433 32.7716 1.74184 32.8885L20.7802 37.976M1 5.38077L20.7802 10.1207M20.7802 37.976V10.1207" stroke="#858176" stroke-width="2"/>
        <path d="M30.35 26.976C30.35 27.335 30.641 27.626 31 27.626C31.359 27.626 31.65 27.335 31.65 26.976L31 26.976L30.35 26.976ZM31.4596 16.5164C31.2058 16.2626 30.7942 16.2626 30.5404 16.5164L26.4038 20.653C26.15 20.9068 26.15 21.3184 26.4038 21.5722C26.6576 21.826 27.0692 21.826 27.323 21.5722L31 17.8953L34.677 21.5722C34.9308 21.826 35.3424 21.826 35.5962 21.5722C35.85 21.3184 35.85 20.9068 35.5962 20.653L31.4596 16.5164ZM31 26.976L31.65 26.976L31.65 16.976L31 16.976L30.35 16.976L30.35 26.976L31 26.976Z" fill="#858176"/>
        <path d="M9.35 15.976C9.35 15.617 9.64101 15.326 10 15.326C10.359 15.326 10.65 15.617 10.65 15.976L10 15.976L9.35 15.976ZM10.4596 26.4356C10.2058 26.6895 9.79422 26.6895 9.54038 26.4356L5.40381 22.2991C5.14997 22.0452 5.14997 21.6337 5.40381 21.3798C5.65765 21.126 6.0692 21.126 6.32305 21.3798L10 25.0568L13.677 21.3798C13.9308 21.126 14.3424 21.126 14.5962 21.3798C14.85 21.6337 14.85 22.0452 14.5962 22.2991L10.4596 26.4356ZM10 15.976L10.65 15.976L10.65 25.976L10 25.976L9.35 25.976L9.35 15.976L10 15.976Z" fill="#858176"/>
    </symbol>
</svg>
